<svg xmlns="http://www.w3.org/2000/svg" viewBox="0 0 600 149.98"><defs><style>.cls-1{fill:#2d4d58;}.cls-2{fill:#02ac85;}</style></defs><title>ED-systemRisorsa 1</title><g id="Livello_2" data-name="Livello 2"><g id="Grafica"><polygon class="cls-1" points="221.75 80.1 238.68 80.1 238.68 67.76 221.75 67.76 221.75 60.84 241.77 60.84 241.77 47.75 206.25 47.75 206.25 102.23 242.66 102.23 242.66 89.13 221.75 89.13 221.75 80.1"/><path class="cls-1" d="M297.07,54c-5.8-4.36-14.3-6.24-25.59-6.24H255.83v54.48h15.95c13.1,0,21.45-2.64,26.87-7.53,5.19-4.74,7.75-11.51,7.75-19.64C306.4,65.88,303.09,58.51,297.07,54Zm-9,30.4c-2.33,2.79-6.32,4.74-16.18,4.74h-.6V60.84h.53c6.09,0,11.06.6,14.37,3.08,3.09,2.34,4.67,6,4.67,11.14C290.9,78.6,290.15,81.91,288.11,84.39Z"/><path class="cls-1" d="M340.93,80.41c-5.49-1-10.76-1-10.76-5.2,0-3.31,3.31-4.74,8.05-4.74a28.11,28.11,0,0,1,13.55,3.61V67.31a30.1,30.1,0,0,0-13.25-2.94c-8.57,0-15.12,3.69-15.2,11.37,0,7.3,5.57,9.4,12.65,10.61,5.71,1,11.06,1.05,11.06,5.49,0,3.61-3.31,5.12-8.43,5.12a27.1,27.1,0,0,1-14.15-4V100a31,31,0,0,0,13.85,3c7.9,0,15.58-3.23,15.58-11.81C353.88,83.57,348,81.61,340.93,80.41Z"/><path class="cls-1" d="M389.24,79.2c-1.73,3.76-3.39,7.45-5,11.14h-.15C382.54,87,380.74,83,379,79.2l-6.47-14H365l15.43,33-10,20.54h7.37L402.86,65.2h-7.15Z"/><path class="cls-1" d="M430.7,80.41c-5.49-1-10.76-1-10.76-5.2,0-3.31,3.31-4.74,8.05-4.74a28.11,28.11,0,0,1,13.55,3.61V67.31a30.1,30.1,0,0,0-13.25-2.94c-8.58,0-15.12,3.69-15.2,11.37,0,7.3,5.57,9.4,12.64,10.61,5.72,1,11.06,1.05,11.06,5.49,0,3.61-3.3,5.12-8.43,5.12a27.06,27.06,0,0,1-14.14-4V100a31,31,0,0,0,13.84,3c7.91,0,15.59-3.23,15.59-11.81C443.65,83.57,437.78,81.61,430.7,80.41Z"/><path class="cls-1" d="M468.69,54l-6.77,1.13V65.2h-6.85v6.1h6.85V89.36c0,5.19,1,8.2,2.79,10.23a10.75,10.75,0,0,0,8.42,3.46,16.54,16.54,0,0,0,6.7-1.35V95.3a11.13,11.13,0,0,1-5.57,1.58c-4.89,0-5.57-4.21-5.57-8.8V71.3h11.14V65.2H468.69Z"/><path class="cls-1" d="M509.55,64.38c-9.93,0-18.44,7.67-18.44,19.33s8.58,19.34,20,19.34a26.15,26.15,0,0,0,13.24-3.46V92.37A21.06,21.06,0,0,1,511.58,97c-7.3,0-12.72-4-13.69-11.29h28.29a23.13,23.13,0,0,0,.23-3.38C526.41,70.7,518.58,64.38,509.55,64.38ZM498,80.33a11.3,11.3,0,0,1,11.36-9.86c4.44,0,9.86,2.48,10.46,9.86Z"/><path class="cls-1" d="M596.91,68.29a12.62,12.62,0,0,0-9.7-3.92c-5.12,0-9.64,2.19-14.07,6.4-2.26-4.44-6.78-6.4-11.37-6.4a17.86,17.86,0,0,0-12.57,5.42l-.15-.07V65.2h-6.77v37h6.77V76.49c2.56-3.08,6.93-5.79,11.29-5.79A7.15,7.15,0,0,1,566,73c1.27,1.51,1.73,3.31,1.73,7.3v21.9h6.77V79.13c0-.91,0-1.81-.07-2.64,2.55-3,7-5.79,11.28-5.79A7.43,7.43,0,0,1,591.34,73c1.36,1.59,1.88,3.84,1.88,7.38v21.9H600V79.13C600,74.08,599.17,70.77,596.91,68.29Z"/><path class="cls-2" d="M75,0H53.85l77.39,75L53.85,150H75A75,75,0,1,0,75,0M37.5,20.49H0V61.37H46.87V88.62H0v40.87H37.5L93.75,75Z"/></g></g></svg>